<svg width="67.79" height="67.79" xmlns="http://www.w3.org/2000/svg" version="1.1">

 <g>
  <title>Layer 1</title>
  <ellipse stroke="null" ry="30.31815" rx="30.31815" id="svg_5" cy="34.06561" cx="33.39985" fill="#000000"/>
  <g stroke="null">
   <path stroke="null" fill="#70D44B" d="m33.39985,4.31363l0,0c16.42557,0 29.75198,13.32641 29.75198,29.75198l0,0c0,16.42557 -13.32641,29.75198 -29.75198,29.75198l0,0c-16.42557,0 -29.75198,-13.32641 -29.75198,-29.75198l0,0c0,-16.42557 13.32641,-29.75198 29.75198,-29.75198z" class="st0"/>
   <path stroke="null" fill="#FFFFFF" d="m33.39985,16.46235c1.57024,0 2.99586,0.88843 3.69834,2.29338l11.61154,23.24373c1.01239,2.04545 0.18595,4.52478 -1.8595,5.53717c-0.57851,0.28926 -1.19834,0.43388 -1.83884,0.43388l-23.22307,0c-2.27272,0 -4.13222,-1.8595 -4.13222,-4.13222c0,-0.64049 0.14463,-1.28099 0.43388,-1.83884l11.61154,-23.24373c0.70248,-1.42562 2.12809,-2.31404 3.69834,-2.29338m0,-2.85123c-2.64462,0 -5.06197,1.4876 -6.23965,3.86362l-11.61154,23.24373c-1.71487,3.4504 -0.33058,7.62394 3.11983,9.35948c0.97107,0.47521 2.04545,0.7438 3.11983,0.7438l23.24373,0c3.84296,0 6.98345,-3.11983 6.98345,-6.96279c0,-1.07438 -0.24793,-2.14875 -0.7438,-3.11983l-11.6322,-23.26439c-1.17768,-2.37603 -3.59503,-3.86362 -6.23965,-3.86362z" class="st1"/>
  </g>
 </g>
</svg>