<svg xmlns="http://www.w3.org/2000/svg" viewBox="0 0 2792.96 2792.68"><path d="M852.34,2895.88c414.31,0,747.62-333.32,747.62-747.63s-333.31-747.63-747.62-747.63-747.63,333.31-747.63,747.63S438,2895.88,852.34,2895.88Z" transform="translate(-104.71 -104.12)" fill="#2775ca"/><path d="M1015.34,2242.1c0-86.44-51.86-116.08-155.59-128.43-74.1-9.88-88.92-29.64-88.92-64.22s24.7-56.8,74.1-56.8c44.45,0,69.15,14.82,81.5,51.87a18.56,18.56,0,0,0,17.29,12.34h39.51a16.88,16.88,0,0,0,17.29-17.28v-2.47a123.37,123.37,0,0,0-111.14-101.26v-59.28c0-9.88-7.41-17.29-19.75-19.76h-37c-9.88,0-17.29,7.41-19.76,19.76v56.8c-74.1,9.89-121,59.28-121,121,0,81.5,49.4,113.6,153.13,126,69.15,12.34,91.38,27.16,91.38,66.68s-34.58,66.69-81.5,66.69c-64.22,0-86.45-27.18-93.86-64.22-2.46-9.88-9.87-14.82-17.28-14.82h-42A16.88,16.88,0,0,0,684.39,2252v2.47c9.88,61.74,49.4,106.2,130.9,118.55v59.28c0,9.87,7.41,17.28,19.76,19.75h37c9.88,0,17.29-7.41,19.77-19.75V2373c74.09-12.35,123.48-64.22,123.48-130.9Z" transform="translate(-104.71 -104.12)" fill="#fff"/><path d="M726.38,2501.43c-192.65-69.15-291.44-284-219.81-474.2,37-103.74,118.55-182.77,219.81-219.81,9.88-4.94,14.81-12.35,14.81-24.7v-34.58c0-9.88-4.93-17.29-14.81-19.76-2.48,0-7.41,0-9.88,2.47-234.63,74.09-363.07,323.55-289,558.18,44.45,138.3,150.66,244.51,289,289,9.88,4.94,19.76,0,22.22-9.88,2.47-2.46,2.47-4.94,2.47-9.87v-34.58C741.19,2516.25,733.79,2506.37,726.38,2501.43Zm261.8-770.58c-9.88-4.94-19.77,0-22.23,9.88-2.47,2.47-2.47,4.94-2.47,9.88v34.58c0,9.88,7.41,19.75,14.82,24.7,192.64,69.15,291.43,284,219.81,474.2-37,103.73-118.55,182.76-219.81,219.81-9.89,4.94-14.82,12.35-14.82,24.7v34.57c0,9.89,4.93,17.29,14.82,19.76,2.47,0,7.41,0,9.88-2.47,234.63-74.09,363.06-323.54,289-558.17-44.45-140.78-153.13-247-289-291.44Z" transform="translate(-104.71 -104.12)" fill="#fff"/><circle cx="2045.33" cy="2045.05" r="747.63"/><path d="M2150,1419.89l180.15,184.49L1876.55,2058,1696.4,1877.86Z" transform="translate(-104.71 -104.12)" fill="#f0b90b" stroke="#f0b90b"/><path d="M2423.52,1693.37l180.15,184.49L1876.55,2605,1696.4,2424.83Z" transform="translate(-104.71 -104.12)" fill="#f0b90b" stroke="#f0b90b"/><path d="M1603.07,1966.85l180.15,184.5L1603.07,2331.5l-180.15-180.15Z" transform="translate(-104.71 -104.12)" fill="#f0b90b" stroke="#f0b90b"/><path d="M2697,1966.85l180.16,184.5L2150,2878.46l-180.15-180.15Z" transform="translate(-104.71 -104.12)" fill="#f0b90b" stroke="#f0b90b"/><circle cx="747.63" cy="747.63" r="747.63" fill="#26a17b"/><path d="M942.14,916.38v-.1c-5.14.38-31.63,2-90.74,2-47.19,0-80.42-1.4-92.1-2v.14C577.63,908.43,442,876.8,442,839s135.6-69.44,317.27-77.57V884.93c11.87.84,45.89,2.85,92.9,2.85,56.4,0,84.66-2.34,89.94-2.8V761.48c181.3,8.08,316.58,39.71,316.58,77.47s-135.28,69.39-316.58,77.43m0-167.75V638.07h253V469.48H506.32V638.07h253V748.58c-205.59,9.44-360.21,50.18-360.21,99s154.62,89.48,360.21,99V1300.8H942.14V946.42c205.28-9.44,359.52-50.14,359.52-98.87s-154.24-89.44-359.52-98.92" transform="translate(-104.71 -104.12)" fill="#fff" fill-rule="evenodd"/><path d="M2147.66,104.12c413,0,747.63,334.76,747.63,747.63s-334.68,747.63-747.63,747.63S1400,1264.66,1400,851.75,1734.79,104.12,2147.66,104.12Z" transform="translate(-104.71 -104.12)" fill="#f5ac37"/><path d="M2175.22,904.54H2459.3c6.06,0,8.92,0,9.36-7.94a543.37,543.37,0,0,0,0-86.9c0-5.62-2.79-7.94-8.88-7.94H1894.39c-7,0-8.88,2.32-8.88,8.88v83.17c0,10.73,0,10.73,11.21,10.73Zm261.71-200a9.08,9.08,0,0,0,0-6.53A184.46,184.46,0,0,0,2420,668.6a238,238,0,0,0-34.58-43.47,114.8,114.8,0,0,0-21.5-21,335.92,335.92,0,0,0-140.19-71,348.52,348.52,0,0,0-79.44-8.41H1893.42c-7,0-7.94,2.79-7.94,8.88V699.41c0,7,0,8.89,8.88,8.89h539.21s4.67-.95,5.62-3.74h-2.26Zm0,297.18a108.42,108.42,0,0,0-23.89,0H1894.87c-7,0-9.36,0-9.36,9.35v162.16c0,7.47,0,9.35,9.36,9.35h239.24a119.29,119.29,0,0,0,34.08-2.32,355.89,355.89,0,0,0,101.43-22.44A185.18,185.18,0,0,0,2303.7,1142H2307a303.64,303.64,0,0,0,130.37-131.24s3.26-7.07-.41-8.92Zm-645.32,264.94V1008.3c0-6.09,0-7-7.47-7h-101.4c-5.62,0-7.94,0-7.94-7.47V905h108.4c6.06,0,8.41,0,8.41-7.94V809.26c0-5.62,0-7-7.47-7h-101.4c-5.62,0-7.94,0-7.94-7.47V712.57c0-5.15,0-6.53,7.47-6.53h100.46c7,0,8.88,0,8.88-8.88V445.3c0-7.47,0-9.35,9.36-9.35H2151.4a534.06,534.06,0,0,1,75.7,8.41,457,457,0,0,1,146.25,54.2,411.9,411.9,0,0,1,82.22,63.55,450.71,450.71,0,0,1,50,62.14,374.33,374.33,0,0,1,36.51,71.5,12.17,12.17,0,0,0,14,9.82h83.64c10.73,0,10.73,0,11.2,10.3v76.64c0,7.46-2.79,9.35-10.29,9.35h-64.5c-6.53,0-8.41,0-7.94,8.41a476.78,476.78,0,0,1,0,85.49c0,7.94,0,8.88,8.92,8.88h73.78c3.26,4.21,0,8.41,0,12.65a94.62,94.62,0,0,1,0,16.32v56.55c0,7.94-2.32,10.3-9.36,10.3h-88.31a11.69,11.69,0,0,0-13.56,8.88,373.6,373.6,0,0,1-98.14,143,561.33,561.33,0,0,1-50,40.17c-18.71,10.77-36.91,22-56.08,30.86a505.53,505.53,0,0,1-110.29,35,574.45,574.45,0,0,1-109.34,8.88H1791.48v-.47Z" transform="translate(-104.71 -104.12)" fill="#fefefd"/></svg>