<?xml version="1.0" encoding="utf-8"?>
<!-- Generator: Adobe Illustrator 25.3.1, SVG Export Plug-In . SVG Version: 6.00 Build 0)  -->
<svg version="1.1" id="Layer_1" xmlns="http://www.w3.org/2000/svg" xmlns:xlink="http://www.w3.org/1999/xlink" x="0px" y="0px"
	 viewBox="0 0 140 140" style="enable-background:new 0 0 140 140;" xml:space="preserve">
<style type="text/css">
	.st0{fill-rule:evenodd;clip-rule:evenodd;fill:#0F0E25;}
	.st1{fill-rule:evenodd;clip-rule:evenodd;fill:#FFFFFF;}
	.st2{fill-rule:evenodd;clip-rule:evenodd;fill:url(#Rectangle_3_);}
	.st3{fill:#0F0E25;}
</style>
<g id="logos">
	<g id="flux-dark">
		<g id="Flux-Logo-New" transform="translate(70.000000, 70.000000) rotate(90.000000) translate(-70.000000, -70.000000) ">
			<circle id="Oval" class="st0" cx="70" cy="70" r="70"/>
			<path id="Rectangle" class="st1" d="M103,83L103,83c0,7.2-5.8,13-13,13H50c-7.2,0-13-5.8-13-13l0,0c0-7.2,5.8-13,13-13h40
				C97.2,70,103,75.8,103,83z"/>
			<path id="Rectangle_1_" class="st1" d="M50,30c7.2,0,13,5.8,13,13v53l0,0H50c-7.2,0-13-5.8-13-13V43C37,35.8,42.8,30,50,30z"/>
			
				<radialGradient id="Rectangle_3_" cx="587.5" cy="458.3077" r="2.5385" gradientTransform="matrix(26 0 0 -26 -15199 11959.9883)" gradientUnits="userSpaceOnUse">
				<stop  offset="0" style="stop-color:#FE84FC"/>
				<stop  offset="1" style="stop-color:#2ED1FF"/>
			</radialGradient>
			<path id="Rectangle_2_" class="st2" d="M63,44h13c7.2,0,13,5.8,13,13v40c0,7.2-5.8,13-13,13s-13-5.8-13-13V44L63,44z"/>
		</g>
		<path id="fux" class="st3" d="M213.2,24c8.7,0,15.7,1.4,22.8,3.1V116h-18.5V40.9c-1.5-0.1-3-0.1-4.3-0.1
			c-6.9,0-11.5,3.4-11.5,10.8h9v18.6h-9V116h-18.5V70.1H175V51.6h8.3C183.3,33.5,192.7,24,213.2,24z M291.9,52H311v62.3h-19.1v-5.9
			c-3.4,4.6-9.8,7.6-18.2,7.6c-12.8,0-23.8-9-23.8-25.8V52h19.1v35.5c0,7.7,5,11.3,11.1,11.3c7,0,11.8-4,11.8-12.8V52z M384,115
			h-21.7l-11.8-16.6L338.7,115H317l22.6-32l-21.9-31h21.7l11,15.6l11-15.6h21.7l-21.9,31L384,115z"/>
	</g>
</g>
</svg>
