<svg width="67.79" height="67.79" xmlns="http://www.w3.org/2000/svg" version="1.1">

 <g>
  <title>Layer 1</title>
  <ellipse stroke="null" ry="30.31815" rx="30.31815" id="svg_5" cy="34.06561" cx="33.20339" fill="#000000"/>
  <ellipse stroke="null" ry="30.31815" rx="30.31815" id="svg_12" cy="34.06561" cx="33.20339" fill="#ffffff"/>
  <g stroke="null">
   <g stroke="null" data-name="Layer 1" id="svg_11">
    <path stroke="null" d="m46.28167,14.65226l-9.03296,13.41139a0.96031,0.96031 0 0 0 1.42547,1.26041l8.89191,-7.71252a0.36012,0.36012 0 0 1 0.6002,0.27309l0,24.1459a0.36012,0.36012 0 0 1 -0.63621,0.23108l-26.87679,-32.17353a4.60651,4.60651 0 0 0 -3.51415,-1.62953l-0.93931,0a4.60351,4.60351 0 0 0 -4.60351,4.60351l0,34.00713a4.60351,4.60351 0 0 0 4.60351,4.60351l0,0a4.60651,4.60651 0 0 0 3.92528,-2.19372l9.03296,-13.41139a0.96031,0.96031 0 0 0 -1.42547,-1.26041l-8.89191,7.71252a0.36012,0.36012 0 0 1 -0.6002,-0.27309l0,-24.1519a0.36012,0.36012 0 0 1 0.63621,-0.23108l26.87379,32.17953a4.60651,4.60651 0 0 0 3.51415,1.62953l0.93931,0a4.60351,4.60351 0 0 0 4.60651,-4.60351l0,-34.00713a4.60351,4.60351 0 0 0 -4.60351,-4.60351l0,0a4.60651,4.60651 0 0 0 -3.92528,2.19372z"/>
   </g>
  </g>
 </g>
</svg>