<?xml version="1.0" encoding="utf-8"?>
<!-- Generator: Adobe Illustrator 25.3.1, SVG Export Plug-In . SVG Version: 6.00 Build 0)  -->
<svg version="1.1" xmlns="http://www.w3.org/2000/svg" xmlns:xlink="http://www.w3.org/1999/xlink" x="0px" y="0px"
	 viewBox="0 0 128 128" style="enable-background:new 0 0 128 128;" xml:space="preserve">
<style type="text/css">
	.st0{fill:#1A3F01;}
	.st1{fill:#7CB342;}
	.st2{opacity:0.2;fill:#424242;enable-background:new    ;}
	.st3{fill:#558B2F;}
	.st4{fill:#C40E00;}
	.st5{fill:#C90000;}
	.st6{fill:url(#SVGID_1_);}
	.st7{fill:#A62121;}
	.st8{fill:#E50500;}
	.st9{fill:#EF5350;}
	.st10{fill:url(#SVGID_2_);}
	.st11{fill:#F41E0F;}
</style>
<g id="Layer_2">
	<circle class="st0" cx="64" cy="63.3" r="43.9"/>
</g>
<g id="Layer_1">
	<g>
		<path class="st1" d="M68.9,97.5l0.2-2l-0.5-4.2l0.1-2c0.1,0,0.1-0.1,0.2-0.1c0.5-0.4,1.4-1.2,1.4-1.2s-1-1.7-1.3-2.3l0,0l0.5-9.9
			l-4.7,0.1l-0.1,11.4c-0.1,0-1.9,2.4-1.9,2.4l1.9,1.2V91l-0.1,2.1c-0.1,0-2.1,2.3-2.1,2.3s1.3,1.1,2,1.5l0,0.4l0.5,4.6h3.6l0.1-1.9
			c0.5-0.4,1.8-1.8,1.8-1.8S69.2,97.6,68.9,97.5L68.9,97.5z"/>
		<path class="st2" d="M68.1,77.1l-0.5,8.5c0,0.3,0.1,0.5,0.2,0.7c0,0,0,0,0,0c0.2,0.3,0.5,0.8,0.8,1.3l-0.5,0.4
			c-0.4,0.2-0.7,0.6-0.7,1.1l-0.1,2c0,0.1,0,0.1,0,0.2l0.5,4.1l-0.1,1.9c0,0.5,0.2,1,0.7,1.3c-0.2,0.2-0.4,0.4-0.5,0.5
			c-0.2,0.2-0.4,0.5-0.4,0.9l-0.1,0.7h-1.2l-0.4-3.4l0-0.3c0-0.5-0.2-0.9-0.6-1.1c-0.2-0.1-0.5-0.3-0.8-0.6c0.4-0.5,0.8-0.9,1-1.1
			c0.1,0,0.1-0.1,0.2-0.1c0.3-0.2,0.4-0.6,0.4-0.9L66,91v-0.1c0-0.5-0.2-0.9-0.6-1.1l-0.7-0.4c0.4-0.6,0.8-1,0.9-1.1
			c0.2-0.2,0.4-0.6,0.4-0.9L66,77.2L68.1,77.1z M69.4,75.8l-4.7,0.1l-0.1,11.4c-0.1,0-1.9,2.4-1.9,2.4l1.9,1.2V91l-0.1,2.1
			c-0.1,0-2.1,2.3-2.1,2.3s1.3,1.1,2,1.5l0,0.4l0.5,4.6h3.6l0.1-1.9c0.5-0.4,1.8-1.8,1.8-1.8s-1.3-0.7-1.5-0.8l0.2-2l-0.5-4.2l0.1-2
			c0.1,0,0.1-0.1,0.2-0.1c0.5-0.4,1.4-1.2,1.4-1.2s-1-1.7-1.3-2.3l0,0L69.4,75.8z"/>
		<path class="st1" d="M67.7,81.1c0,0,1.4,6.3,7.8,7.7c4.6,1.1,12-3.5,12-3.5s-5.2-9.4-11.1-8.9C70.9,76.8,68.8,79.6,67.7,81.1z"/>
		<path class="st2" d="M76.7,78.3c2.3,0,4.5,2,6,3.8c0.8,0.9,1.5,1.8,2,2.6C82.6,85.7,79.4,87,77,87c-0.4,0-0.8,0-1.1-0.1
			C72,86,70.4,83,69.9,81.5c1.1-1.3,2.9-2.9,6.6-3.2C76.5,78.3,76.6,78.3,76.7,78.3 M76.7,76.4c-0.1,0-0.3,0-0.4,0
			c-5.4,0.4-7.5,3.3-8.6,4.7c0,0,1.4,6.3,7.8,7.7c0.5,0.1,1,0.2,1.5,0.2c4.5,0,10.4-3.6,10.4-3.6S82.5,76.4,76.7,76.4z"/>
		<path class="st1" d="M66.5,79.4c0,0,0.1,6.5-6.8,9.1c-4.9,1.9-13.5-2.1-13.5-2.1s4.6-11.3,11.2-11.7
			C63.4,74.3,65.1,77.9,66.5,79.4z"/>
		<path class="st2" d="M58.2,76.6c3.5,0,4.9,1.7,6.1,3.2c0.1,0.1,0.2,0.2,0.2,0.3c-0.2,1.5-1.1,5-5.5,6.6c-0.7,0.3-1.5,0.4-2.4,0.4
			c-2.7,0-5.8-1-7.7-1.7c0.5-1,1.2-2.3,2.1-3.6c1.5-2.2,3.9-4.9,6.5-5.1C57.8,76.6,58,76.6,58.2,76.6 M58.2,74.7c-0.3,0-0.5,0-0.8,0
			c-6.6,0.4-11.2,11.7-11.2,11.7S51.9,89,56.7,89c1.1,0,2.2-0.1,3.1-0.5c6.8-2.6,6.8-9.1,6.8-9.1C65.2,78,63.6,74.7,58.2,74.7z"/>
		<ellipse class="st3" cx="66.5" cy="70.9" rx="13.1" ry="10.4"/>
		<path class="st2" d="M66.5,62.4c6.1,0,11.1,3.8,11.1,8.5c0,4.7-5,8.5-11.1,8.5s-11.1-3.8-11.1-8.5C55.3,66.2,60.3,62.4,66.5,62.4
			 M66.5,60.5c-7.2,0-13.1,4.7-13.1,10.4c0,5.8,5.9,10.4,13.1,10.4c7.2,0,13.1-4.7,13.1-10.4S73.7,60.5,66.5,60.5z"/>
		<path class="st4" d="M68.1,33.2c1.1-2.5,3.3-4.6,5.8-5.6c2.2-0.8,4.6-1,6.4-2.5c1.4,1.7,2.8,3.5,3.7,5.5s1.4,4.3,0.8,6.5
			c-0.5,1.8-1.7,3.3-3.2,4.4c-1.5,1.1-3.2,1.8-5,2.3c-1,0.3-2,0.4-3,0.3c-0.9-0.1-1.8-0.6-2.6-1c-0.8-0.4-2.3-0.8-2.9-1.5
			c-0.5-0.5-0.6-1.6-0.7-2.3c-0.2-1-0.2-2.1-0.1-3.1c0.1-0.5,0.2-1,0.3-1.5C67.7,34.3,68.1,33.6,68.1,33.2z"/>
		<path class="st5" d="M51.8,49.6c-0.9,2.8-3,5.7-3.5,8.6c-0.7,3.9,0.5,8.6,2.8,11.9c1.6,2.2,4,4,6.7,4.9c5.7,1.8,15.1,2,20.7-2.6
			c5.7-4.6,8.3-12.7,6.4-19.7c-0.5-1.8-1.3-3.6-1.4-5.5c-0.2-2.8,0.1-5.3,1.4-7.8c-2.7,0.3-4.3,1.5-6.9,2.3C74,42.8,69,43,65.4,40.6
			c-9.5-6-14.3-1.8-14-0.3C52.3,45.6,52.4,47.7,51.8,49.6z"/>
		
			<linearGradient id="SVGID_1_" gradientUnits="userSpaceOnUse" x1="61.6474" y1="88.9001" x2="70.5791" y2="107.3145" gradientTransform="matrix(1 0 0 -1 0 130)">
			<stop  offset="0.1454" style="stop-color:#B71C1C"/>
			<stop  offset="0.2941" style="stop-color:#C82723"/>
			<stop  offset="0.5563" style="stop-color:#E0362E"/>
			<stop  offset="0.7985" style="stop-color:#EF4034"/>
			<stop  offset="1" style="stop-color:#F44336"/>
		</linearGradient>
		<path class="st6" d="M56.7,37.5c0,0-5.3-6.9,2.9-12.9c0,0,1.2,1,2.9,1.1c1.7,0.1,3.9-1.2,6.3,0.9s5.7,2.3,6.9,2.1
			c1.1-0.2,4.5,2.6-0.5,6.2c-5.5,3.9-7,4-7,4s-8.6-0.5-9.9-0.7C57,37.9,56.7,37.5,56.7,37.5z"/>
		<path class="st7" d="M61,34.5c0,0,6-3.5,9.7-1.1c3.7,2.4-5.2,3.5-6.8,3.4C62.4,36.6,61,34.5,61,34.5z"/>
		<path class="st8" d="M40.1,49.4c1.4,0,2.8,0.9,3.6,2.1c0.9,1.2,1.4,2.5,2.1,3.8c2.2,3.9,6.1,6.6,10.3,8.1
			c4.2,1.5,8.7,1.8,13.2,1.7c1.3,0,2.6-0.1,3.9,0.1c1.3,0.2,2.6,0.7,3.5,1.6c0-1.8-1.1-3.4-2.5-4.6c-1.4-1.1-3.1-1.8-4.8-2.4
			c-3.1-1.2-6.2-2.4-9.2-3.6c-1.6-0.6-3.3-1.3-4.7-2.2c-1.4-1-2.1-2.3-2.6-4c-0.6-1.8-0.9-3.8-0.8-5.8c0.1-1.5-0.2-3.2-1.1-4.5
			c-0.8-1.2-1.8-0.9-3-0.3c-2.5,1.3-4.7,3.3-6.1,5.7C41.7,45.4,40,49.4,40.1,49.4z"/>
		<path class="st9" d="M60.1,34.3c1.4-0.6,5.7,1.5,7.1,1.7c2.8,0.4,3.5,0.6,6.2-0.7c2.1-1,2.8-1.4,4.4-3.9c-1.2,2.8,1,5.8-0.3,8.2
			c-2.8,5.4-13.7,2.1-15.2,1.3C61.1,40.4,57.6,39.3,60.1,34.3z"/>
		
			<linearGradient id="SVGID_2_" gradientUnits="userSpaceOnUse" x1="45.309" y1="92.1618" x2="77.5629" y2="92.1618" gradientTransform="matrix(1 0 0 -1 0 130)">
			<stop  offset="3.417000e-04" style="stop-color:#E53935"/>
			<stop  offset="0.2376" style="stop-color:#E03632"/>
			<stop  offset="0.5228" style="stop-color:#D12D2A"/>
			<stop  offset="0.8317" style="stop-color:#B91D1D"/>
			<stop  offset="0.8546" style="stop-color:#B71C1C"/>
		</linearGradient>
		<path class="st10" d="M48.7,28.9C37.9,37,56.1,46,60,47.2c3.7,1.2,8.2,0.9,11.8-0.7c1-0.4,2-0.9,2.8-1.7c0.8-0.7,2.8-2.9,2.9-4
			c-5.6,1.9-16.8,0.9-21.1-5.6c-1.9-2.9,0-6-0.7-6.6C54,27.2,50.3,27.7,48.7,28.9z"/>
		<path class="st11" d="M74.3,44.2c6-0.7,7.3-6.6,10.2-6.5c1.8,0.8,3.1,2.6,3.3,4.6c0.2,2-0.7,4-2.3,5.1c-7.6,5.7-9.9,0.2-11.5,2.8
			c-2.8,4.3-6.4,6.2-10,5.8c-5.8-0.6-9.7-7.6-8.2-7.2C64.3,51.4,65.3,45.3,74.3,44.2z"/>
		<path class="st2" d="M60,27.6c0.7,0.3,1.5,0.5,2.5,0.6c0.1,0,0.2,0,0.4,0c0.6,0,1.2-0.1,1.7-0.2c0.4-0.1,0.9-0.1,1.3-0.1
			c0.5,0,1,0.1,1.6,0.6c1.2,1.1,2.7,1.8,4.4,2.3c0.2,0.1,0.4,0.1,0.6,0.1c0.5,0,0.9-0.1,1.3-0.4c0.4-0.3,0.8-0.5,1.2-0.6
			c0.6-0.2,1.3-0.4,2-0.6c0.9-0.3,2-0.5,2.9-1c0.8,1.1,1.5,2.2,2.1,3.3c0.8,1.7,1,3.4,0.7,4.8c0,0.1-0.1,0.3-0.2,0.5
			c-0.5,1.2,0,2.6,1.2,3.1c1,0.5,1.7,1.5,1.8,2.6c0.1,1.1-0.4,2.2-1.3,2.9c-0.3,0.2-0.6,0.4-1.1,0.6c-1.1,0.4-1.8,1.6-1.5,2.8
			c0.2,1,0.5,1.9,0.8,2.8c0.2,0.5,0.3,1,0.5,1.5c1.6,6.1-0.7,13.2-5.6,17.2c-2.6,2.1-6.5,3.3-11,3.3c-2.6,0-5.2-0.4-7.4-1.1
			c-2.1-0.7-4.1-2.1-5.4-3.9c-1.9-2.7-2.9-6.6-2.4-9.7c0.1-0.8-0.1-1.5-0.7-2.1c-0.9-0.9-1.6-1.8-2.1-2.7c-0.2-0.4-0.4-0.8-0.7-1.2
			c-0.5-0.9-1-1.9-1.7-2.8c-0.7-0.9-1.5-1.6-2.3-2.1c0.3-0.7,0.6-1.3,0.7-1.6c1.2-1.9,2.9-3.5,4.9-4.6c0.7-0.4,1.1-1,1.3-1.8
			c0.1-0.8-0.1-1.5-0.6-2.1c-0.9-1-1.9-2.4-1.8-3.7c0.1-1,0.9-2.1,2.4-3.2c0.4-0.3,1.5-0.7,2.7-0.7c0.5,0,0.9,0.1,1.1,0.2
			c0.4,0.5,1,0.8,1.7,0.9c0.1,0,0.2,0,0.2,0c0.9,0,1.8-0.5,2.2-1.4C58.6,29.1,59.2,28.3,60,27.6 M59.7,24.6
			c-1.9,1.4-3.1,2.9-3.7,4.3c0-0.1-0.1-0.2-0.1-0.2c-0.7-0.6-1.8-0.9-2.9-0.9c-1.6,0-3.2,0.5-4.1,1.2c-4.8,3.6-3.8,7.4-0.9,10.6
			c-2.4,1.3-4.4,3.2-5.9,5.5c-0.2,0.4-1.9,4.4-1.8,4.4h0.1c1.4,0,2.7,0.9,3.5,2.1c0.9,1.2,1.4,2.5,2.1,3.8c0.7,1.2,1.5,2.2,2.5,3.2
			c-0.5,3.8,0.6,8.4,2.9,11.5c1.6,2.2,4,4,6.7,4.9c2.3,0.7,5.2,1.2,8.1,1.2c4.5,0,9.2-1,12.6-3.8c5.7-4.6,8.3-12.7,6.4-19.7
			c-0.4-1.4-0.9-2.8-1.2-4.2c0.6-0.2,1.1-0.5,1.7-0.9c1.6-1.2,2.5-3.2,2.3-5.1c-0.2-1.9-1.4-3.7-3.2-4.5c0.1-0.2,0.2-0.5,0.3-0.7
			c0.6-2.1,0.1-4.5-0.8-6.5c-0.9-2-2.3-3.8-3.7-5.5c-1.7,1.5-4.2,1.7-6.4,2.5c-0.6,0.2-1.1,0.5-1.6,0.8c-1.1-0.3-2.4-0.9-3.5-1.8
			c-1.1-1-2.2-1.2-3.2-1.2c-1.1,0-2.1,0.3-2.9,0.3c-0.1,0-0.1,0-0.2,0C60.9,25.6,59.7,24.6,59.7,24.6L59.7,24.6z"/>
	</g>
</g>
</svg>
