<svg xmlns="http://www.w3.org/2000/svg" xmlns:xlink="http://www.w3.org/1999/xlink" viewBox="0 0 2792.7 2791.75"><defs><linearGradient id="a" x1="2109.05" y1="4631.44" x2="2261.16" y2="4317.84" gradientTransform="translate(0 -2870)" gradientUnits="userSpaceOnUse"><stop offset="0.15" stop-color="#b71c1c"/><stop offset="0.29" stop-color="#c82723"/><stop offset="0.56" stop-color="#e0362e"/><stop offset="0.8" stop-color="#ef4034"/><stop offset="1" stop-color="#f44336"/></linearGradient><linearGradient id="b" x1="1831.67" y1="4576.29" x2="2380.96" y2="4576.29" gradientTransform="translate(0 -2870)" gradientUnits="userSpaceOnUse"><stop offset="0" stop-color="#e53935"/><stop offset="0.24" stop-color="#e03632"/><stop offset="0.52" stop-color="#d12d2a"/><stop offset="0.83" stop-color="#b91d1d"/><stop offset="0.85" stop-color="#b71c1c"/></linearGradient></defs><path d="M852.34,2895.88c414.31,0,747.62-333.32,747.62-747.63s-333.31-747.63-747.62-747.63-747.63,333.31-747.63,747.63S438,2895.88,852.34,2895.88Z" transform="translate(-104.71 -104.12)" fill="#2775ca"/><path d="M1015.34,2242.1c0-86.44-51.86-116.08-155.59-128.43-74.1-9.88-88.92-29.64-88.92-64.22s24.7-56.8,74.1-56.8c44.45,0,69.15,14.82,81.5,51.87a18.56,18.56,0,0,0,17.29,12.34h39.51a16.88,16.88,0,0,0,17.29-17.28v-2.47a123.37,123.37,0,0,0-111.14-101.26v-59.28c0-9.88-7.41-17.29-19.75-19.76h-37c-9.88,0-17.29,7.41-19.76,19.76v56.8c-74.1,9.89-121,59.28-121,121,0,81.5,49.4,113.6,153.13,126,69.15,12.34,91.38,27.16,91.38,66.68s-34.58,66.69-81.5,66.69c-64.22,0-86.45-27.18-93.86-64.22-2.46-9.88-9.87-14.82-17.28-14.82h-42A16.88,16.88,0,0,0,684.39,2252v2.47c9.88,61.74,49.4,106.2,130.9,118.55v59.28c0,9.87,7.41,17.28,19.76,19.75h37c9.88,0,17.29-7.41,19.77-19.75V2373c74.09-12.35,123.48-64.22,123.48-130.9Z" transform="translate(-104.71 -104.12)" fill="#fff"/><path d="M726.38,2501.43c-192.65-69.15-291.44-284-219.81-474.2,37-103.74,118.55-182.77,219.81-219.81,9.88-4.94,14.81-12.35,14.81-24.7v-34.58c0-9.88-4.93-17.29-14.81-19.76-2.48,0-7.41,0-9.88,2.47-234.63,74.09-363.07,323.55-289,558.18,44.45,138.3,150.66,244.51,289,289,9.88,4.94,19.76,0,22.22-9.88,2.47-2.46,2.47-4.94,2.47-9.87v-34.58C741.19,2516.25,733.79,2506.37,726.38,2501.43Zm261.8-770.58c-9.88-4.94-19.77,0-22.23,9.88-2.47,2.47-2.47,4.94-2.47,9.88v34.58c0,9.88,7.41,19.75,14.82,24.7,192.64,69.15,291.43,284,219.81,474.2-37,103.73-118.55,182.76-219.81,219.81-9.89,4.94-14.82,12.35-14.82,24.7v34.57c0,9.89,4.93,17.29,14.82,19.76,2.47,0,7.41,0,9.88-2.47,234.63-74.09,363.06-323.54,289-558.17-44.45-140.78-153.13-247-289-291.44Z" transform="translate(-104.71 -104.12)" fill="#fff"/><circle cx="2045.07" cy="2035.71" r="747.63" fill="#1a3f01"/><path d="M2233.23,2722.27l3.4-34.06-8.51-71.53,1.7-34.06c1.71,0,1.71-1.7,3.41-1.7,8.51-6.81,23.84-20.44,23.84-20.44s-17-28.95-22.14-39.17h0l8.52-168.6-80,1.71-1.7,194.14c-1.7,0-32.36,40.87-32.36,40.87l32.36,20.44v1.7l-1.7,35.77c-1.7,0-35.77,39.17-35.77,39.17s22.14,18.73,34.07,25.54v6.81l8.51,78.34h61.31l1.7-32.35c8.52-6.82,30.66-30.66,30.66-30.66s-22.14-10.22-27.25-11.92Z" transform="translate(-104.71 -104.12)" fill="#7cb342"/><path d="M2219.6,2374.85l-8.51,144.76c0,5.11,1.7,8.52,3.41,11.92h0c3.4,5.11,8.51,13.63,13.62,22.14l-8.52,6.81a21,21,0,0,0-11.92,18.74l-1.7,34.06v3.4l8.52,69.83-1.71,32.35c0,8.52,3.41,17,11.92,22.14l-8.51,8.52a21.55,21.55,0,0,0-6.81,15.33l-1.71,11.92h-20.43l-6.82-57.91v-5.1c0-8.52-3.4-15.33-10.21-18.74a55.69,55.69,0,0,1-13.63-10.22,227.85,227.85,0,0,1,17-18.73c1.71,0,1.71-1.7,3.41-1.7,5.11-3.41,6.81-10.22,6.81-15.33v-39.17c0-8.51-3.41-15.33-10.22-18.73l-11.92-6.81a123.49,123.49,0,0,1,15.33-18.74c3.4-3.4,6.81-10.22,6.81-15.33v-173.7Zm22.14-22.14-80,1.71-1.7,194.14c-1.7,0-32.36,40.87-32.36,40.87l32.36,20.44v1.7l-1.7,35.77c-1.71,0-35.77,39.17-35.77,39.17s22.14,18.73,34.06,25.54v6.81l8.52,78.34h61.31l1.7-32.35c8.51-6.82,30.65-30.66,30.65-30.66s-22.14-11.92-25.54-13.62l3.4-34.06-8.51-71.53,1.7-34.06c1.71,0,1.71-1.7,3.41-1.7,8.51-6.82,23.84-20.44,23.84-20.44s-17-29-22.14-39.17h0Z" transform="translate(-104.71 -104.12)" fill="#424242" opacity="0.2" style="isolation:isolate"/><path d="M2212.79,2443s23.84,107.29,132.84,131.14C2424,2592.84,2550,2514.5,2550,2514.5s-88.56-160.08-189-151.57C2267.29,2369.74,2231.53,2417.43,2212.79,2443Z" transform="translate(-104.71 -104.12)" fill="#7cb342"/><path d="M2366.06,2395.29c39.17,0,76.64,34.06,102.19,64.71,13.62,15.33,25.54,30.66,34.06,44.28-35.77,17-90.26,39.17-131.14,39.17-6.81,0-13.62,0-18.73-1.7-66.42-15.33-93.67-66.42-102.18-92,18.73-22.14,49.39-49.39,112.4-54.5h3.4m0-32.36h-6.81c-92,6.81-127.72,56.2-146.46,80,0,0,23.84,107.29,132.84,131.14,8.51,1.7,17,3.4,25.54,3.4,76.64,0,177.12-61.31,177.12-61.31S2464.84,2362.93,2366.06,2362.93Z" transform="translate(-104.71 -104.12)" fill="#424242" opacity="0.2" style="isolation:isolate"/><path d="M2192.36,2414s1.7,110.7-115.81,155c-83.45,32.36-229.91-35.77-229.91-35.77S1925,2340.79,2037.38,2334C2139.56,2327.17,2168.51,2388.48,2192.36,2414Z" transform="translate(-104.71 -104.12)" fill="#7cb342"/><path d="M2051,2366.34c59.61,0,83.45,28.95,103.89,54.49,1.7,1.71,3.41,3.41,3.41,5.11-3.41,25.55-18.74,85.16-93.67,112.4-11.92,5.11-25.55,6.82-40.87,6.82-46,0-98.78-17-131.14-29,8.52-17,20.44-39.17,35.77-61.3,25.54-37.47,66.41-83.45,110.69-86.86a33.32,33.32,0,0,1,11.92-1.7m0-32.36h-13.62c-112.4,6.81-190.74,199.25-190.74,199.25s97.07,44.28,178.82,44.28c18.73,0,37.47-1.7,52.79-8.51,115.81-44.28,115.81-155,115.81-155C2170.22,2390.18,2143,2334,2051,2334Z" transform="translate(-104.71 -104.12)" fill="#424242" opacity="0.2" style="isolation:isolate"/><ellipse cx="2087.65" cy="2165.14" rx="223.1" ry="177.11" fill="#558b2f"/><path d="M2192.36,2124.51c103.88,0,189,64.71,189,144.76s-85.15,144.75-189,144.75-189-64.71-189-144.75c-1.7-80.05,83.45-144.76,189-144.76m0-32.36c-122.62,0-223.1,80-223.1,177.12,0,98.77,100.48,177.11,223.1,177.11s223.09-80,223.09-177.11S2315,2092.15,2192.36,2092.15Z" transform="translate(-104.71 -104.12)" fill="#424242" opacity="0.2" style="isolation:isolate"/><path d="M2219.6,1627.22c18.74-42.57,56.2-78.33,98.78-95.36,37.47-13.63,78.34-17,109-42.58,23.85,29,47.69,59.61,63,93.67s23.84,73.23,13.62,110.69c-8.52,30.66-29,56.2-54.5,74.94s-54.49,30.65-85.15,39.17a130.94,130.94,0,0,1-51.09,5.1c-15.33-1.7-30.65-10.21-44.28-17s-39.17-13.62-49.39-25.54c-8.51-8.52-10.21-27.25-11.92-39.17-3.4-17-3.4-35.76-1.7-52.79q2.55-12.78,5.11-25.55C2212.79,1646,2219.6,1634,2219.6,1627.22Z" transform="translate(-104.71 -104.12)" fill="#c40e00"/><path d="M1942,1906.52c-15.33,47.69-51.09,97.07-59.6,146.46-11.93,66.42,8.51,146.46,47.68,202.66a235.66,235.66,0,0,0,114.1,83.45c97.08,30.65,257.16,34.06,352.53-44.28,97.07-78.34,141.35-216.28,109-335.5-8.51-30.65-22.14-61.3-23.84-93.66-3.41-47.69,1.7-90.26,23.84-132.84-46,5.11-73.23,25.55-117.51,39.17-68.12,18.74-153.27,22.14-214.58-18.73-161.78-102.18-243.53-30.66-238.42-5.11C1950.53,1838.4,1952.23,1874.16,1942,1906.52Z" transform="translate(-104.71 -104.12)" fill="#c90000"/><path d="M2025.46,1700.45s-90.26-117.5,49.39-219.69c0,0,20.43,17,49.38,18.74s66.42-20.44,107.3,15.32,97.07,39.17,117.5,35.77c18.74-3.41,76.64,44.28-8.51,105.59-93.67,66.41-119.21,68.12-119.21,68.12s-146.46-8.52-168.6-11.92C2030.57,1707.27,2025.46,1700.45,2025.46,1700.45Z" transform="translate(-104.71 -104.12)" fill="url(#a)"/><path d="M2098.69,1649.36s102.18-59.6,165.19-18.73-88.55,59.61-115.8,57.9C2122.53,1685.13,2098.69,1649.36,2098.69,1649.36Z" transform="translate(-104.71 -104.12)" fill="#a62121"/><path d="M1742.76,1903.11c23.84,0,47.68,15.33,61.31,35.77,15.32,20.43,23.84,42.57,35.76,64.71,37.47,66.42,103.88,112.4,175.41,138s148.16,30.65,224.8,28.95c22.14,0,44.28-1.7,66.42,1.7s44.28,11.92,59.6,27.25c0-30.65-18.73-57.9-42.57-78.34-23.84-18.73-52.79-30.65-81.75-40.87-52.79-20.44-105.58-40.87-156.67-61.31-27.25-10.22-56.2-22.14-80.05-37.47-23.84-17-35.76-39.17-44.28-68.12a272.44,272.44,0,0,1-13.62-98.77c1.7-25.55-3.41-54.5-18.73-76.64-13.63-20.44-30.66-15.33-51.09-5.11-42.58,22.14-80,56.2-103.89,97.07C1770,1835,1741.05,1903.11,1742.76,1903.11Z" transform="translate(-104.71 -104.12)" fill="#e50500"/><path d="M2083.36,1646c23.84-10.22,97.07,25.54,120.92,29,47.68,6.81,59.6,10.22,105.58-11.92,35.77-17,47.69-23.84,74.94-66.42-20.44,47.68,17,98.78-5.11,139.65-47.69,92-233.32,35.76-258.86,22.14C2100.39,1749.84,2040.79,1731.11,2083.36,1646Z" transform="translate(-104.71 -104.12)" fill="#ef5350"/><path d="M1889.22,1554c-183.93,138,126,291.22,192.44,311.66,63,20.43,139.65,15.33,201-11.92,17-6.82,34.06-15.33,47.68-29,13.63-11.93,47.69-49.39,49.39-68.13-95.37,32.36-286.11,15.33-359.34-95.36-32.36-49.39,0-102.19-11.92-112.4C1979.48,1525,1916.47,1533.56,1889.22,1554Z" transform="translate(-104.71 -104.12)" fill="url(#b)"/><path d="M2325.19,1814.56c102.18-11.92,124.32-112.4,173.71-110.7,30.66,13.62,52.79,44.28,56.2,78.34s-11.92,68.12-39.17,86.85c-129.43,97.08-168.6,3.41-195.85,47.69-47.68,73.23-109,105.59-170.3,98.77-98.78-10.21-165.19-129.43-139.65-122.61C2154.89,1937.18,2171.92,1833.29,2325.19,1814.56Z" transform="translate(-104.71 -104.12)" fill="#f41e0f"/><path d="M2081.66,1531.86c11.92,5.1,25.54,8.51,42.57,10.21h6.82c10.22,0,20.43-1.7,28.95-3.4,6.81-1.71,15.33-1.71,22.14-1.71,8.51,0,17,1.71,27.25,10.22,20.43,18.74,46,30.66,74.93,39.17,3.41,1.7,6.81,1.7,10.22,1.7,8.51,0,15.32-1.7,22.14-6.81a57.63,57.63,0,0,1,20.43-10.22c10.22-3.4,22.14-6.81,34.06-10.21,15.33-5.11,34.06-8.52,49.39-17a512,512,0,0,1,35.76,56.2c13.63,29,17,57.9,11.93,81.74,0,1.7-1.71,5.11-3.41,8.52-8.52,20.43,0,44.28,20.44,52.79,17,8.52,28.95,25.55,30.65,44.28s-6.81,37.47-22.14,49.39a92.5,92.5,0,0,1-18.73,10.21c-18.74,6.82-30.66,27.25-25.55,47.69,3.41,17,8.52,32.36,13.63,47.68,3.4,8.52,5.11,17,8.51,25.55,27.25,103.88-11.92,224.8-95.37,292.92C2332,2296.51,2265.59,2317,2189,2317c-44.28,0-88.56-6.81-126-18.73-35.77-11.92-69.83-35.77-92-66.42-32.35-46-49.39-112.4-40.87-165.19,1.7-13.63-1.7-25.55-11.92-35.77q-23-23-35.76-46c-3.41-6.81-6.82-13.62-11.93-20.44-8.51-15.32-17-32.35-29-47.68a152.32,152.32,0,0,0-39.17-35.76c5.11-11.93,10.22-22.14,11.92-27.25a230.36,230.36,0,0,1,83.45-78.34c11.92-6.81,18.74-17,22.14-30.66q2.55-20.43-10.22-35.76c-15.32-17-32.35-40.87-30.65-63,1.7-17,15.33-35.77,40.87-54.5,6.81-5.11,25.55-11.92,46-11.92,8.52,0,15.33,1.7,18.74,3.41,6.81,8.51,17,13.62,29,15.32h3.4c15.33,0,30.66-8.51,37.47-23.84,3.41-17,13.63-30.65,27.25-42.57m-5.11-51.1c-32.36,23.85-52.79,49.39-63,73.23,0-1.7-1.7-3.4-1.7-3.4-11.93-10.22-30.66-15.33-49.39-15.33-27.25,0-54.5,8.52-69.83,20.44-81.74,61.31-64.71,126-15.32,180.52-40.88,22.14-74.94,54.5-100.48,93.66-3.41,6.82-32.36,74.94-30.66,74.94h1.71c23.84,0,46,15.33,59.6,35.76,15.33,20.44,23.84,42.58,35.77,64.72,11.92,20.43,25.54,37.46,42.57,54.49-8.51,64.72,10.22,143.06,49.39,195.85a235.66,235.66,0,0,0,114.1,83.45,489.33,489.33,0,0,0,137.95,20.44c76.63,0,156.68-17,214.58-64.72,97.07-78.34,141.35-216.28,109-335.5-6.81-23.84-15.33-47.68-20.43-71.52,10.21-3.41,18.73-8.52,29-15.33,27.25-20.44,42.57-54.5,39.17-86.85s-23.85-63-54.5-76.64c1.7-3.41,3.41-8.52,5.11-11.92,10.22-35.76,1.7-76.64-13.63-110.7s-39.17-64.71-63-93.66c-28.95,25.54-71.52,29-109,42.57-10.22,3.41-18.73,8.52-27.25,13.63a166.15,166.15,0,0,1-59.61-30.66c-18.73-17-37.46-20.44-54.49-20.44-18.74,0-35.77,5.11-49.39,5.11h-3.41c-32.35-5.11-52.79-22.14-52.79-22.14Z" transform="translate(-104.71 -104.12)" fill="#424242" opacity="0.2" style="isolation:isolate"/><circle cx="747.63" cy="747.63" r="747.63" fill="#26a17b"/><path d="M942.14,916.38v-.1c-5.14.38-31.63,2-90.74,2-47.19,0-80.42-1.4-92.1-2v.14C577.63,908.43,442,876.8,442,839s135.6-69.44,317.27-77.57V884.93c11.87.84,45.89,2.85,92.9,2.85,56.4,0,84.66-2.34,89.94-2.8V761.48c181.3,8.08,316.58,39.71,316.58,77.47s-135.28,69.39-316.58,77.43m0-167.75V638.07h253V469.48H506.32V638.07h253V748.58c-205.59,9.44-360.21,50.18-360.21,99s154.62,89.48,360.21,99V1300.8H942.14V946.42c205.28-9.44,359.52-50.14,359.52-98.87s-154.24-89.44-359.52-98.92" transform="translate(-104.71 -104.12)" fill="#fff" fill-rule="evenodd"/><path d="M2147.66,104.12c413,0,747.63,334.76,747.63,747.63s-334.68,747.63-747.63,747.63S1400,1264.66,1400,851.75,1734.79,104.12,2147.66,104.12Z" transform="translate(-104.71 -104.12)" fill="#f5ac37"/><path d="M2175.22,904.54H2459.3c6.06,0,8.92,0,9.36-7.94a543.37,543.37,0,0,0,0-86.9c0-5.62-2.79-7.94-8.88-7.94H1894.39c-7,0-8.88,2.32-8.88,8.88v83.17c0,10.73,0,10.73,11.21,10.73Zm261.71-200a9.08,9.08,0,0,0,0-6.53A184.46,184.46,0,0,0,2420,668.6a238,238,0,0,0-34.58-43.47,114.8,114.8,0,0,0-21.5-21,335.92,335.92,0,0,0-140.19-71,348.52,348.52,0,0,0-79.44-8.41H1893.42c-7,0-7.94,2.79-7.94,8.88V699.41c0,7,0,8.89,8.88,8.89h539.21s4.67-.95,5.62-3.74h-2.26Zm0,297.18a108.42,108.42,0,0,0-23.89,0H1894.87c-7,0-9.36,0-9.36,9.35v162.16c0,7.47,0,9.35,9.36,9.35h239.24a119.29,119.29,0,0,0,34.08-2.32,355.89,355.89,0,0,0,101.43-22.44A185.18,185.18,0,0,0,2303.7,1142H2307a303.64,303.64,0,0,0,130.37-131.24s3.26-7.07-.41-8.92Zm-645.32,264.94V1008.3c0-6.09,0-7-7.47-7h-101.4c-5.62,0-7.94,0-7.94-7.47V905h108.4c6.06,0,8.41,0,8.41-7.94V809.26c0-5.62,0-7-7.47-7h-101.4c-5.62,0-7.94,0-7.94-7.47V712.57c0-5.15,0-6.53,7.47-6.53h100.46c7,0,8.88,0,8.88-8.88V445.3c0-7.47,0-9.35,9.36-9.35H2151.4a534.06,534.06,0,0,1,75.7,8.41,457,457,0,0,1,146.25,54.2,411.9,411.9,0,0,1,82.22,63.55,450.71,450.71,0,0,1,50,62.14,374.33,374.33,0,0,1,36.51,71.5,12.17,12.17,0,0,0,14,9.82h83.64c10.73,0,10.73,0,11.2,10.3v76.64c0,7.46-2.79,9.35-10.29,9.35h-64.5c-6.53,0-8.41,0-7.94,8.41a476.78,476.78,0,0,1,0,85.49c0,7.94,0,8.88,8.92,8.88h73.78c3.26,4.21,0,8.41,0,12.65a94.62,94.62,0,0,1,0,16.32v56.55c0,7.94-2.32,10.3-9.36,10.3h-88.31a11.69,11.69,0,0,0-13.56,8.88,373.6,373.6,0,0,1-98.14,143,561.33,561.33,0,0,1-50,40.17c-18.71,10.77-36.91,22-56.08,30.86a505.53,505.53,0,0,1-110.29,35,574.45,574.45,0,0,1-109.34,8.88H1791.48v-.47Z" transform="translate(-104.71 -104.12)" fill="#fefefd"/></svg>