<svg width="67.79" height="67.79" xmlns="http://www.w3.org/2000/svg" version="1.1">

 <g>
  <title>Layer 1</title>
  <ellipse stroke="null" ry="30.31815" rx="30.31815" id="svg_5" cy="32.76044" cx="33.33664" fill="#000000"/>
  <g id="svg_6">
   <path stroke-width="1px" fill="#ffbd00" id="path1051" d="m11.28789,26.19792l12.387,0.359l2.361,5.959l7.616,3.31l8.523,-3.322l2.348,-5.87l12.269,0.03l-2.485,25.934l-22.985,4.66l-18.947,-6.212l-1.087,-24.848z"/>
   <path stroke-width="1px" fill="#a0a0ff" id="path1815" d="m34.06613,10.97292l-10.43,9.633l1.096,10.01l8.844,5.21l9.785,-5.287l1.086,-11.33l-10.381,-8.236z"/>
   <path fill="#666" d="m33.33713,2.83144a29.93,29.93 0 0 1 4.682,0.367a29.93,29.93 0 0 1 25.244,29.572a29.93,29.93 0 0 1 -29.92,29.92a29.93,29.93 0 0 1 -0.006,-59.86l0,0.001zm0.729,8.293c-2.03,5.668 -8.815,9.76 -8.815,14.521c0,4.76 3.912,8.62 8.737,8.62c4.824,0 8.736,-3.86 8.736,-8.62s-6.707,-8.697 -8.658,-14.521zm3.183,10.095a2.524,2.446 0 0 1 0.246,0.012a2.524,2.446 0 0 1 0.246,0.035a2.524,2.446 0 0 1 0.24,0.059a2.524,2.446 0 0 1 0.233,0.08a2.524,2.446 0 0 1 0.225,0.104a2.524,2.446 0 0 1 0.213,0.123a2.524,2.446 0 0 1 0.197,0.142a2.524,2.446 0 0 1 0.183,0.162a2.524,2.446 0 0 1 0.168,0.178a2.524,2.446 0 0 1 0.147,0.191a2.524,2.446 0 0 1 0.127,0.207a2.524,2.446 0 0 1 0.105,0.217a2.524,2.446 0 0 1 0.084,0.227a2.524,2.446 0 0 1 0.06,0.232a2.524,2.446 0 0 1 0.038,0.237a2.524,2.446 0 0 1 0.012,0.24a2.524,2.446 0 0 1 -0.086,0.633a2.524,2.446 0 0 1 -0.252,0.59a2.524,2.446 0 0 1 -0.403,0.507a2.524,2.446 0 0 1 -0.521,0.389a2.524,2.446 0 0 1 -0.61,0.244a2.524,2.446 0 0 1 -0.652,0.084a2.524,2.446 0 0 1 -0.654,-0.084a2.524,2.446 0 0 1 -0.607,-0.244a2.524,2.446 0 0 1 -0.524,-0.389a2.524,2.446 0 0 1 -0.4,-0.508a2.524,2.446 0 0 1 -0.252,-0.59a2.524,2.446 0 0 1 -0.086,-0.632a2.524,2.446 0 0 1 0.086,-0.633a2.524,2.446 0 0 1 0.252,-0.59a2.524,2.446 0 0 1 0.4,-0.506a2.524,2.446 0 0 1 0.525,-0.387a2.524,2.446 0 0 1 0.607,-0.247a2.524,2.446 0 0 1 0.654,-0.082l-0.001,-0.001zm-13.65,5.49a16.579,2.485 0 0 0 -6.502,1.965a16.579,2.485 0 0 0 7.635,2.093a10.483,10.6 0 0 1 -1.133,-4.058zm20.848,0.078a10.483,10.6 0 0 1 -1.086,3.904a16.579,2.485 0 0 0 6.894,-2.017a16.579,2.485 0 0 0 -5.808,-1.887zm6.925,3.21c-0.455,1.177 -4.097,2.154 -9.273,2.659a10.483,10.6 0 0 1 -8.072,3.861a10.483,10.6 0 0 1 -8.067,-3.85c-5.276,-0.506 -8.978,-1.498 -9.398,-2.64l-0.049,0l0,5.17l0.049,0a0.69,0.69 0 0 0 -0.049,0.24c0,1.8 7.81,3.25 17.43,3.25c9.62,0 17.43,-1.45 17.43,-3.25a0.69,0.69 0 0 0 0,-0.24l-0.001,-5.2zm0.032,7.323c-0.67,1.73 -8.22,3.03 -17.43,3.03c-9.23,0 -16.771,-1.34 -17.381,-3l-0.049,0l0,5.17l0.049,0a0.69,0.69 0 0 0 -0.049,0.24c0,1.8 7.81,3.25 17.43,3.25c9.62,0 17.43,-1.45 17.43,-3.25a0.69,0.69 0 0 0 0,-0.24l0,-5.2zm0,7.21c-0.67,1.69 -8.22,3.03 -17.43,3.03c-9.23,0 -16.771,-1.34 -17.381,-3l-0.049,0l0,5.17l0.049,0a0.69,0.69 0 0 0 -0.049,0.24c0,1.8 7.81,3.25 17.43,3.25c9.62,0 17.43,-1.45 17.43,-3.25a0.69,0.69 0 0 0 0,-0.24l0,-5.2z" id="path928"/>
  </g>
 </g>
</svg>