<svg width="67.79" height="67.79" xmlns="http://www.w3.org/2000/svg" version="1.1">

 <g>
  <title>Layer 1</title>
  <ellipse stroke="null" ry="30.31815" rx="30.31815" id="svg_5" cy="34.06561" cx="33.20339" fill="#000000"/>
  <ellipse stroke="null" ry="30.31815" rx="30.31815" id="svg_12" cy="34.06561" cx="33.20339" fill="#ffffff"/>
  <g stroke="null">
   <g stroke="null">
    <g stroke="null" fill-rule="evenodd" clip-rule="evenodd">
     <circle stroke="null" r="1.1854" fill="#9bcada" cy="14.80842" cx="38.52465"/>
     <circle stroke="null" r="1.1854" fill="#c6e0ea" cy="17.34779" cx="53.32933"/>
     <circle stroke="null" r="1.18541" fill="#f0f5fa" cy="41.47212" cx="49.52023"/>
     <circle stroke="null" r="1.1854" fill="#9bcada" cy="47.8206" cx="41.90203"/>
     <circle stroke="null" r="1.1854" fill="#f0f5fa" cy="27.50537" cx="19.04742"/>
    </g>
    <path stroke="null" fill="#c6e0ea" d="m54.59905,48.53974l-0.71915,0l0,-0.71915c0,-0.65466 -0.53075,-1.1854 -1.1854,-1.1854s-1.1854,0.53075 -1.1854,1.1854l0,0.71915l-0.71915,0c-0.65466,0 -1.1854,0.53075 -1.1854,1.1854s0.53075,1.1854 1.1854,1.1854l0.71915,0l0,0.71915c0,0.65466 0.53075,1.1854 1.1854,1.1854s1.1854,-0.53075 1.1854,-1.1854l0,-0.71915l0.71915,0c0.65466,0 1.1854,-0.53075 1.1854,-1.1854s-0.53075,-1.1854 -1.1854,-1.1854z"/>
    <ellipse stroke="null" transform="matrix(0.0558721 -0.0558721 0.0558721 0.0558721 3.33335 58.7866)" ry="143.533" rx="143.534" fill="#00f4ff" cy="53.79839" cx="363.72693"/>
    <circle stroke="null" r="8.8036" fill="#ff6378" cy="28.77509" cx="46.98085"/>
    <ellipse stroke="null" transform="matrix(0.0730209 -0.0302673 0.0302673 0.0730209 19.3586 47.2494)" ry="71.233" rx="71.233" fill="#ffb428" cy="-303.58324" cx="234.6417"/>
    <path stroke="null" fill="#00b4fc" d="m26.66562,30.12906l0,22.68604c6.25459,0 11.34306,-5.08847 11.34306,-11.34298s-5.08847,-11.34306 -11.34306,-11.34306z"/>
    <path stroke="null" fill="#00b4fc" d="m38.00868,41.47212c0,-6.25459 -5.08847,-11.34306 -11.34306,-11.34306c-4.88734,0 -9.06266,3.10702 -10.65458,7.44964l11.9243,0c0.74657,0 1.35397,0.6074 1.35397,1.35397c0,0.75858 -0.61443,1.35397 -1.35397,1.35397l-2.53937,0c-2.01416,0 -3.72478,1.62424 -3.72478,3.72478c0,2.05383 1.67095,3.72478 3.72478,3.72478l10.7212,0c1.19441,-1.79605 1.89151,-3.95008 1.89151,-6.26407z"/>
    <path stroke="null" fill="#0073f9" d="m38.00868,41.47212c0,-6.25459 -5.08847,-11.34306 -11.34306,-11.34306l0,7.44964l1.26973,0c0.74657,0 1.35397,0.6074 1.35397,1.35397c0,0.75858 -0.61443,1.35397 -1.35397,1.35397l-1.26973,0l0,7.44964l9.45155,0c1.19441,-1.79613 1.89151,-3.95016 1.89151,-6.26415z"/>
    <path stroke="null" fill="#d000b1" d="m46.98085,37.5787l0,-17.60721c4.85431,0 8.80361,3.94929 8.80361,8.80361s-3.94929,8.80361 -8.80361,8.80361z"/>
    <path stroke="null" fill="#d000b1" d="m48.25058,30.12906l-9.96917,0c0.12937,0.8346 0.3768,1.63048 0.72389,2.37081l9.24521,0c0.65466,0 1.1854,-0.53075 1.1854,-1.1854s-0.53067,-1.1854 -1.18533,-1.1854z"/>
    <path stroke="null" fill="#d000b1" d="m54.95641,25.05032l-9.24529,0c-0.65466,0 -1.1854,0.53075 -1.1854,1.1854s0.53075,1.1854 1.1854,1.1854l9.96917,0c-0.12937,-0.8346 -0.3768,-1.63056 -0.72389,-2.37081z"/>
    <path stroke="null" fill="#9330a0" d="m49.43599,31.31447c0,-0.65466 -0.53075,-1.1854 -1.1854,-1.1854l-1.26973,0l0,2.37081l1.26965,0c0.65474,0 1.18548,-0.53075 1.18548,-1.1854z"/>
    <path stroke="null" fill="#9330a0" d="m55.63099,27.13687c-0.00332,-0.0177 -0.00672,-0.0354 -0.01019,-0.05303c-0.03762,-0.19235 -0.08132,-0.38249 -0.13126,-0.5701c-0.003,-0.01138 -0.00616,-0.02268 -0.00925,-0.03406c-0.02521,-0.09325 -0.05168,-0.18603 -0.0799,-0.27802c-0.00016,-0.00055 -0.00032,-0.00111 -0.00047,-0.00174c-0.06061,-0.19757 -0.12802,-0.39213 -0.20183,-0.58354c-0.00016,-0.0004 -0.00024,-0.00071 -0.0004,-0.00103c-0.07397,-0.19164 -0.1545,-0.38004 -0.24119,-0.56496l-7.97564,0l0,2.37081l8.69945,0c-0.01478,-0.09546 -0.03153,-0.19006 -0.04931,-0.28434z"/>
    <path stroke="null" fill="#ff8c00" d="m32.92986,17.98262c0,-3.10402 -2.52531,-5.62933 -5.62933,-5.62933l0,11.25874c3.10402,0 5.62933,-2.52531 5.62933,-5.62941z"/>
   </g>
  </g>
 </g>
</svg>