<svg xmlns="http://www.w3.org/2000/svg" viewBox="0 0 2997 3000"><path d="M2197,1400h0c441.83,0,800,358.17,800,800h0c0,441.83-358.17,800-800,800h0c-441.83,0-800-358.17-800-800h0C1397,1758.17,1755.17,1400,2197,1400Z"/><path d="M2021.79,1848.85c-17.62-23.55-49-33.47-77.7-24.56s-48.14,34.62-48.14,63.64v133.75H1733.84v133.74H1896v89.17H1733.84v133.74H1896V2579h138.94V2095.19L2372.21,2546c17.62,23.55,49,33.47,77.7,24.55s48.14-34.62,48.14-63.64V2378.33h162.11V2244.59H2498.05v-89.17h162.11V2021.68H2498.05V1821.06H2359.11v478.55Z" fill="#fff"/><circle cx="800" cy="2200" r="800" fill="#26a17b"/><path d="M896.1,2269.15v-.1c-5.5.4-33.85,2.1-97.1,2.1-50.5,0-86-1.5-98.55-2.1v.15c-194.4-8.55-339.5-42.4-339.5-82.9s145.1-74.3,339.5-83v132.2c12.7.9,49.1,3.05,99.4,3.05,60.35,0,90.6-2.5,96.25-3V2103.4c194,8.65,338.75,42.5,338.75,82.9s-144.75,74.25-338.75,82.85m0-179.5v-118.3h270.7V1791h-737v180.4h270.7V2089.6c-220,10.1-385.45,53.7-385.45,105.9s165.45,95.75,385.45,105.9v379.1H896.1V2301.3c219.65-10.1,384.7-53.65,384.7-105.8s-165-95.7-384.7-105.85" fill="#fff" fill-rule="evenodd"/><path d="M1520.15,1600c443.34,0,800-356.66,800-800S1963.49,0,1520.15,0s-800,356.66-800,800S1076.82,1600,1520.15,1600Z" fill="#2775ca"/><path d="M1740.15,926.66c0-116.66-70-156.66-210-173.32-100-13.34-120-40-120-86.68s33.34-76.66,100-76.66c60,0,93.34,20,110,70a25.08,25.08,0,0,0,23.34,16.66h53.33c13.33,0,23.33-10,23.33-23.32V650a166.51,166.51,0,0,0-150-136.66v-80c0-13.34-10-23.34-26.66-26.68h-50c-13.34,0-23.34,10-26.67,26.68V510c-100,13.34-163.33,80-163.33,163.34,0,110,66.66,153.32,206.66,170,93.34,16.66,123.34,36.66,123.34,90s-46.67,90-110,90c-86.67,0-116.67-36.68-126.67-86.68-3.33-13.32-13.33-20-23.33-20h-56.67c-13.33,0-23.33,10-23.33,23.34v3.34c13.33,83.32,66.66,143.32,176.66,160v80c0,13.32,10,23.32,26.67,26.66h50c13.33,0,23.33-10,26.67-26.66v-80c100-16.68,166.66-86.68,166.66-176.68Z" fill="#fff"/><path d="M1350.15,1276.66c-260-93.32-393.33-383.32-296.66-640,50-140,160-246.66,296.66-296.66,13.34-6.66,20-16.66,20-33.34V260c0-13.34-6.66-23.34-20-26.66-3.33,0-10,0-13.33,3.32-316.67,100-490,436.68-390,753.34,60,186.66,203.33,330,390,390,13.33,6.66,26.67,0,30-13.34,3.33-3.32,3.33-6.66,3.33-13.32v-46.68C1370.15,1296.66,1360.15,1283.34,1350.15,1276.66Zm353.34-1040c-13.34-6.66-26.67,0-30,13.34-3.34,3.34-3.34,6.66-3.34,13.34V310c0,13.34,10,26.66,20,33.34,260,93.32,393.34,383.32,296.67,640-50,140-160,246.66-296.67,296.66-13.33,6.66-20,16.66-20,33.34V1360c0,13.34,6.67,23.34,20,26.66,3.34,0,10,0,13.34-3.32,316.66-100,490-436.68,390-753.34-60-190-206.67-333.34-390-393.34Z" fill="#fff"/></svg>